<?xml version="1.0" standalone="no"?><!DOCTYPE svg PUBLIC "-//W3C//DTD SVG 1.1//EN" "http://www.w3.org/Graphics/SVG/1.1/DTD/svg11.dtd"><svg t="1643439830508" class="icon" viewBox="0 0 1024 1024" version="1.1" xmlns="http://www.w3.org/2000/svg" p-id="8573" xmlns:xlink="http://www.w3.org/1999/xlink" width="200" height="200"><defs><style type="text/css"></style></defs><path d="M112.981333 533.162667a241.493333 241.493333 0 0 1 22.016-360.106667 245.077333 245.077333 0 0 1 323.072 24.064l52.224 52.053333 56.832-56.832a241.493333 241.493333 0 0 1 341.333334 0 241.493333 241.493333 0 0 1 0 341.333334L559.274667 881.493333a69.290667 69.290667 0 0 1-97.962667 0z" fill="#FF5C74" p-id="8574"></path><path d="M907.776 449.536l-385.706667 385.706667a17.066667 17.066667 0 0 1-23.552 0L112.981333 449.536a238.933333 238.933333 0 0 1-66.56-128.682667 240.810667 240.810667 0 0 0 66.56 212.309334L460.8 881.493333a69.290667 69.290667 0 0 0 97.962667 0l349.013333-348.330666a240.981333 240.981333 0 0 0 66.56-212.138667 238.933333 238.933333 0 0 1-66.56 128.512z" fill="#F23D60" p-id="8575"></path><path d="M510.293333 249.173333l-52.224-52.224a245.077333 245.077333 0 0 0-324.266666-22.869333 240.64 240.64 0 0 0-88.234667 225.621333 241.834667 241.834667 0 0 1 134.144-181.418666 277.333333 277.333333 0 0 1 273.066667 18.432l58.026666 37.205333zM513.706667 249.173333l52.224-52.224a245.077333 245.077333 0 0 1 324.266666-22.869333 240.64 240.64 0 0 1 87.893334 225.450667 241.834667 241.834667 0 0 0-134.144-181.418667 277.333333 277.333333 0 0 0-273.066667 18.432l-58.026667 37.205333z" fill="#FF889F" p-id="8576"></path><path d="M925.866667 174.421333a267.093333 267.093333 0 0 0-376.832 0l-38.741334 38.570667-34.133333-34.133333A269.994667 269.994667 0 0 0 119.466667 153.6a267.093333 267.093333 0 0 0-24.576 397.653333L443.733333 899.584a94.890667 94.890667 0 0 0 134.144 0L925.866667 551.253333a267.093333 267.093333 0 0 0 0-376.832z m-36.181334 341.333334L541.184 863.402667a44.714667 44.714667 0 0 1-61.781333 0L131.072 514.901333 128.682667 512h120.490666l62.122667 124.245333a17.066667 17.066667 0 0 0 15.872 9.386667 17.066667 17.066667 0 0 0 15.189333-10.581333l98.645334-240.810667 86.357333 290.133333a17.066667 17.066667 0 0 0 15.872 12.117334 17.066667 17.066667 0 0 0 16.042667-11.264L622.421333 512h138.410667a17.066667 17.066667 0 0 0 0-34.133333h-150.357333a17.066667 17.066667 0 0 0-16.042667 11.264L546.133333 624.64l-85.333333-286.72a17.066667 17.066667 0 0 0-32.085333-1.536L324.266667 587.605333l-50.005334-100.010666a17.066667 17.066667 0 0 0-15.189333-9.386667H102.4a216.234667 216.234667 0 0 1-34.133333-128.512 212.992 212.992 0 0 1 82.090666-156.672 209.749333 209.749333 0 0 1 130.56-44.544 225.109333 225.109333 0 0 1 159.061334 66.56l52.224 52.224a25.6 25.6 0 0 0 36.181333 0l56.832-56.832a215.210667 215.210667 0 0 1 304.469333 304.469333z" fill="#3E4454" p-id="8577"></path></svg>