<?xml version="1.0" standalone="no"?><!DOCTYPE svg PUBLIC "-//W3C//DTD SVG 1.1//EN" "http://www.w3.org/Graphics/SVG/1.1/DTD/svg11.dtd"><svg t="1643439819963" class="icon" viewBox="0 0 1024 1024" version="1.1" xmlns="http://www.w3.org/2000/svg" p-id="8426" xmlns:xlink="http://www.w3.org/1999/xlink" width="200" height="200"><defs><style type="text/css"></style></defs><path d="M577.9584 855.893333l5.632-85.333333a3303.765333 3303.765333 0 0 0 1.024-417.621333l-9.216-107.861334a51.2 51.2 0 0 1 66.218667-51.2 430.933333 430.933333 0 0 1 240.64 201.728A915.797333 915.797333 0 0 1 993.1904 785.066667l5.290667 98.645333a56.149333 56.149333 0 0 1-53.930667 59.050667l-35.498667 1.365333a880.981333 880.981333 0 0 1-290.133333-35.84l-4.437333-1.536a49.664 49.664 0 0 1-36.522667-50.858667z" fill="#FF5C74" p-id="8427"></path><path d="M641.4464 277.845333a430.933333 430.933333 0 0 1 240.64 201.728A915.797333 915.797333 0 0 1 993.1904 870.4l1.877333 35.498667a55.978667 55.978667 0 0 0 3.413334-22.357334L993.1904 785.066667a915.797333 915.797333 0 0 0-111.104-390.826667 430.933333 430.933333 0 0 0-240.64-201.728 51.2 51.2 0 0 0-66.218667 51.2l5.12 58.88a50.176 50.176 0 0 1 61.098667-24.746667z" fill="#FF889F" p-id="8428"></path><path d="M944.379733 857.258667l-35.498666 1.365333a881.152 881.152 0 0 1-290.133334-35.84l-4.266666-1.365333a50.005333 50.005333 0 0 1-31.744-27.989334l-4.096 62.464a49.664 49.664 0 0 0 35.84 51.2l4.608 1.365334a881.152 881.152 0 0 0 290.133333 35.84l35.498667-1.365334a56.149333 56.149333 0 0 0 53.930666-59.050666l-3.413333-62.976a56.149333 56.149333 0 0 1-50.858667 36.352z" fill="#F23D60" p-id="8429"></path><path d="M446.203733 855.893333l-5.632-85.333333a3303.765333 3303.765333 0 0 1-1.024-417.621333l9.216-107.861334a51.2 51.2 0 0 0-66.218666-51.2A430.933333 430.933333 0 0 0 142.075733 394.069333 915.797333 915.797333 0 0 0 30.971733 785.066667l-5.290666 98.474666a56.149333 56.149333 0 0 0 53.930666 59.050667l35.498667 1.365333a880.981333 880.981333 0 0 0 290.133333-35.84l4.608-1.365333a49.664 49.664 0 0 0 36.352-50.858667z" fill="#FF5C74" p-id="8430"></path><path d="M30.971733 870.4a915.797333 915.797333 0 0 1 111.104-390.826667 430.933333 430.933333 0 0 1 240.64-201.728 50.176 50.176 0 0 1 61.098667 25.6l5.12-58.88a51.2 51.2 0 0 0-66.218667-51.2 430.933333 430.933333 0 0 0-240.64 200.704A915.797333 915.797333 0 0 0 30.971733 785.066667l-5.290666 98.474666a55.978667 55.978667 0 0 0 3.413333 22.357334z" fill="#FF889F" p-id="8431"></path><path d="M409.681067 821.418667l-4.608 1.365333a881.152 881.152 0 0 1-290.133334 35.84l-35.498666-1.365333a56.149333 56.149333 0 0 1-51.2-36.693334l-3.413334 62.976a56.149333 56.149333 0 0 0 53.930667 59.050667l35.498667 1.365333a881.152 881.152 0 0 0 290.133333-35.84l4.608-1.365333a49.664 49.664 0 0 0 35.84-51.2l-4.096-62.464A50.005333 50.005333 0 0 1 409.681067 821.418667z" fill="#F23D60" p-id="8432"></path><path d="M1018.7904 783.701333A947.541333 947.541333 0 0 0 904.6144 381.781333 455.168 455.168 0 0 0 649.6384 168.106667a75.946667 75.946667 0 0 0-99.84 78.506666l9.216 107.178667c1.536 24.405333 2.389333 49.152 3.242667 73.728L529.147733 397.653333V79.189333a17.066667 17.066667 0 0 0-34.133333 0V397.653333l-33.109333 30.037334c0.853333-24.405333 1.877333-48.810667 3.242666-73.045334l9.216-107.861333a75.946667 75.946667 0 0 0-99.84-78.506667A455.338667 455.338667 0 0 0 119.547733 381.781333 947.029333 947.029333 0 0 0 5.371733 783.701333L0.081067 882.176a81.749333 81.749333 0 0 0 78.677333 85.333333l35.328 1.194667q20.138667 0.853333 40.277333 0.853333A904.533333 904.533333 0 0 0 413.0944 931.84l4.608-1.365333A75.093333 75.093333 0 0 0 471.803733 853.333333l-5.632-85.333333c-6.314667-97.28-8.192-195.584-5.802666-293.205333l51.2-46.762667 51.2 46.762667c2.389333 97.792 0 196.096-5.802667 293.376l-5.632 85.333333a75.093333 75.093333 0 0 0 54.101333 77.141333l4.437334 1.365334a904.533333 904.533333 0 0 0 258.56 37.717333q20.138667 0 40.277333-0.853333l35.498667-1.365334a81.749333 81.749333 0 0 0 78.677333-85.333333z m-603.648-12.117333l5.632 85.333333a24.234667 24.234667 0 0 1-17.066667 24.746667l-4.437333 1.365333a853.333333 853.333333 0 0 1-282.282667 34.133334l-35.498666-1.365334A30.549333 30.549333 0 0 1 51.281067 884.906667l5.290666-98.645334a895.658667 895.658667 0 0 1 107.861334-379.904A404.138667 404.138667 0 0 1 390.907733 216.746667a24.917333 24.917333 0 0 1 8.021334-1.365334 24.746667 24.746667 0 0 1 24.576 26.794667l-9.216 108.544C411.5584 392.533333 409.681067 433.664 409.681067 475.136l-68.266667 60.928-159.402667 57.856a17.066667 17.066667 0 0 0 11.605334 32.085333l134.997333-48.810666-5.973333 18.773333a17.066667 17.066667 0 0 1-7.338667 9.386667l-71.850667 44.544a17.066667 17.066667 0 1 0 17.92 29.013333l71.850667-44.544a51.2 51.2 0 0 0 21.845333-27.989333l16.042667-51.2 37.034667-34.133334c-0.512 84.138667 1.536 167.765333 6.997333 250.538667z m549.888 135.509333a30.378667 30.378667 0 0 1-21.333333 9.898667l-35.84 1.365333a855.893333 855.893333 0 0 1-282.112-34.133333l-4.437334-1.365333a24.234667 24.234667 0 0 1-17.066666-24.746667l5.632-85.333333c5.461333-82.773333 7.338667-166.4 6.656-249.856l37.034666 34.133333 16.042667 51.2a51.2 51.2 0 0 0 21.845333 27.989333l71.850667 44.544a17.066667 17.066667 0 1 0 17.92-29.013333l-71.850667-44.544a17.066667 17.066667 0 0 1-7.168-9.216l-5.973333-18.773333 134.997333 48.810666a17.066667 17.066667 0 0 0 5.802667 1.024 17.066667 17.066667 0 0 0 5.802667-33.109333L682.747733 536.234667l-68.266666-61.098667c-1.024-41.813333-2.56-83.456-4.949334-125.098667l-9.216-107.861333a24.746667 24.746667 0 0 1 32.426667-25.6 404.138667 404.138667 0 0 1 226.986667 189.781333 895.488 895.488 0 0 1 107.861333 379.904l5.290667 98.645334a30.378667 30.378667 0 0 1-8.021334 22.186666z" fill="#3E4454" p-id="8433"></path></svg>