<?xml version="1.0" standalone="no"?><!DOCTYPE svg PUBLIC "-//W3C//DTD SVG 1.1//EN" "http://www.w3.org/Graphics/SVG/1.1/DTD/svg11.dtd"><svg t="1643439835686" class="icon" viewBox="0 0 1024 1024" version="1.1" xmlns="http://www.w3.org/2000/svg" p-id="8717" xmlns:xlink="http://www.w3.org/1999/xlink" width="200" height="200"><defs><style type="text/css"></style></defs><path d="M621.909333 705.024l309.76-42.496a51.2 51.2 0 0 1 57.173334 40.448 51.2 51.2 0 0 1-27.136 55.978667l-249.344 125.952a314.538667 314.538667 0 0 1-122.88 33.109333L34.133333 951.466667V612.352l183.466667-75.264a229.546667 229.546667 0 0 1 157.866667-5.802667l177.322666 57.514667A66.218667 66.218667 0 0 1 597.333333 667.989333l-7.509333 30.037334z" fill="#FFE98D" p-id="8718"></path><path d="M982.869333 687.786667a51.2 51.2 0 0 1-20.992 20.138666l-249.514666 125.781334a314.538667 314.538667 0 0 1-122.88 33.109333L34.133333 900.266667v51.2l555.349334-34.133334a314.538667 314.538667 0 0 0 122.88-33.109333l249.344-125.952a51.2 51.2 0 0 0 20.992-71.338667zM597.333333 648.533333a65.706667 65.706667 0 0 0-4.437333-21.162666l-4.778667 19.114666z" fill="#FFCD52" p-id="8719"></path><path d="M571.733333 362.666667m-93.866666 0a93.866667 93.866667 0 1 0 187.733333 0 93.866667 93.866667 0 1 0-187.733333 0Z" fill="#FFFFFF" p-id="8720"></path><path d="M571.733333 405.333333a93.866667 93.866667 0 0 1-90.282666-68.266666 93.866667 93.866667 0 1 0 180.565333 0 93.866667 93.866667 0 0 1-90.282667 68.266666z" fill="#E1E8EF" p-id="8721"></path><path d="M846.506667 192m-119.466667 0a119.466667 119.466667 0 1 0 238.933333 0 119.466667 119.466667 0 1 0-238.933333 0Z" fill="#FFFFFF" p-id="8722"></path><path d="M846.506667 253.44a119.466667 119.466667 0 0 1-115.712-90.453333 119.466667 119.466667 0 1 0 231.594666 0 119.466667 119.466667 0 0 1-115.882666 90.453333z" fill="#E1E8EF" p-id="8723"></path><path d="M802.133333 524.8m-68.266666 0a68.266667 68.266667 0 1 0 136.533333 0 68.266667 68.266667 0 1 0-136.533333 0Z" fill="#FFFFFF" p-id="8724"></path><path d="M802.133333 541.866667a68.266667 68.266667 0 0 1-63.146666-42.666667 68.266667 68.266667 0 1 0 126.464 0 68.266667 68.266667 0 0 1-63.317334 42.666667z" fill="#E1E8EF" p-id="8725"></path><path d="M375.466667 589.312l177.322666 57.514667a65.877333 65.877333 0 0 1 39.936 35.84l3.925334-15.189334a66.218667 66.218667 0 0 0-43.690667-79.189333L375.466667 531.285333a229.546667 229.546667 0 0 0-158.037334 5.973334L34.133333 612.352v58.026667l183.466667-75.264a229.546667 229.546667 0 0 1 157.866667-5.802667z" fill="#FFF8E1" p-id="8726"></path><path d="M1013.930667 698.026667a77.141333 77.141333 0 0 0-85.333334-60.757334l-308.565333 42.154667 1.365333-5.12a92.16 92.16 0 0 0-60.586666-109.909333L383.658667 506.88a256 256 0 0 0-175.786667 6.656L45.568 580.266667A59.562667 59.562667 0 0 0 8.533333 635.221333v279.893334A59.733333 59.733333 0 0 0 68.266667 975.018667h3.584l519.168-31.232a337.578667 337.578667 0 0 0 132.949333-35.84L972.8 781.994667a76.970667 76.970667 0 0 0 41.130667-83.968z m-63.658667 38.229333l-249.514667 125.952a287.061333 287.061333 0 0 1-112.810666 30.549333L68.266667 923.818667a8.874667 8.874667 0 0 1-5.802667-2.218667 8.533333 8.533333 0 0 1-2.730667-6.144V635.221333a8.533333 8.533333 0 0 1 5.290667-7.850666l162.304-66.56a204.8 204.8 0 0 1 140.458667-5.290667l177.152 57.685333a40.789333 40.789333 0 0 1 26.794666 48.64l-4.608 18.261334a197.290667 197.290667 0 0 1-22.357333-4.096l-130.56-31.573334a25.6 25.6 0 1 0-12.117333 49.834667l130.56 31.573333a248.490667 248.490667 0 0 0 92.672 4.778667l309.930666-42.666667a25.6 25.6 0 0 1 15.018667 48.298667zM571.733333 473.6a110.933333 110.933333 0 1 0-110.933333-110.933333 111.104 111.104 0 0 0 110.933333 110.933333z m0-187.733333a76.8 76.8 0 1 1-76.8 76.8 76.8 76.8 0 0 1 76.8-76.8zM846.506667 328.533333a136.533333 136.533333 0 1 0-136.533334-136.533333 136.533333 136.533333 0 0 0 136.533334 136.533333z m0-238.933333a102.4 102.4 0 1 1-102.4 102.4 102.4 102.4 0 0 1 102.4-102.4z" fill="#3E4454" p-id="8727"></path><path d="M716.8 524.8a85.333333 85.333333 0 1 0 85.333333-85.333333 85.333333 85.333333 0 0 0-85.333333 85.333333z m136.533333 0a51.2 51.2 0 1 1-51.2-51.2 51.2 51.2 0 0 1 51.2 51.2z" fill="#3E4454" p-id="8728"></path></svg>